<svg xmlns="http://www.w3.org/2000/svg" viewBox="0 0 750 500"><g id="freepik--Device--inject-2"><path d="M584.73,100.59H159.82a13.26,13.26,0,0,0-13.26,13.26V414a13.26,13.26,0,0,0,13.26,13.26H322.9s10.38,32.08-21.78,48.68H453.61s-36.31-12.45-27-48.68h158.1A13.25,13.25,0,0,0,598,414V113.85A13.25,13.25,0,0,0,584.73,100.59Z" style="fill:#263238"></path><path d="M378,394.92c5.78,8.26-3.27,17.31-11.53,11.53a3,3,0,0,1-.71-.72c-5.76-8.25,3.27-17.29,11.53-11.52A3,3,0,0,1,378,394.92Z" style="fill:#455a64"></path><path d="M163.57,105.33H581a9.7,9.7,0,0,1,9.7,9.7V371.58a0,0,0,0,1,0,0H153.88a0,0,0,0,1,0,0V115A9.7,9.7,0,0,1,163.57,105.33Z" style="fill:#fff"></path><path d="M163,105.33H583.16a7.52,7.52,0,0,1,7.52,7.52v14.61a0,0,0,0,1,0,0H153.88a0,0,0,0,1,0,0v-13A9.15,9.15,0,0,1,163,105.33Z" style="fill:#ebebeb"></path><circle cx="167.79" cy="116.86" r="3.07" style="fill:#455a64"></circle><circle cx="176.93" cy="116.86" r="3.07" style="fill:#455a64"></circle><path d="M188.7,116.86a3.07,3.07,0,1,1-3.07-3.07A3.07,3.07,0,0,1,188.7,116.86Z" style="fill:#455a64"></path><path d="M508.76,426.52c0,.14-60.46.26-135,.26s-135-.12-135-.26,60.45-.25,135.05-.25S508.76,426.38,508.76,426.52Z" style="fill:#455a64"></path></g><g id="freepik--error-400--inject-2"><path d="M350.49,326.72v1.83h-10.7V313.81H350.2v1.83h-8.3v4.53h7.39V322H341.9v4.76Z" style="fill:#263238"></path><path d="M363.76,328.55,360.58,324c-.29,0-.61.05-.92.05H356v4.48H353.9V313.81h5.76c3.83,0,6.15,1.93,6.15,5.14a4.65,4.65,0,0,1-3.25,4.65l3.5,4.95Zm-.06-9.6c0-2.11-1.41-3.31-4.11-3.31H356v6.64h3.58C362.29,322.28,363.7,321.05,363.7,319Z" style="fill:#263238"></path><path d="M379.08,328.55,375.9,324c-.3,0-.61.05-.93.05h-3.64v4.48h-2.11V313.81H375c3.84,0,6.15,1.93,6.15,5.14a4.65,4.65,0,0,1-3.24,4.65l3.5,4.95ZM379,319c0-2.11-1.42-3.31-4.11-3.31h-3.58v6.64h3.58C377.6,322.28,379,321.05,379,319Z" style="fill:#263238"></path><path d="M383.33,321.18a7.85,7.85,0,1,1,7.86,7.54A7.49,7.49,0,0,1,383.33,321.18Zm13.57,0a5.73,5.73,0,1,0-5.71,5.67A5.53,5.53,0,0,0,396.9,321.18Z" style="fill:#263238"></path><path d="M412.09,328.55,408.91,324c-.3,0-.61.05-.93.05h-3.64v4.48h-2.11V313.81H408c3.84,0,6.15,1.93,6.15,5.14a4.65,4.65,0,0,1-3.24,4.65l3.5,4.95ZM412,319c0-2.11-1.41-3.31-4.11-3.31h-3.58v6.64h3.58C410.62,322.28,412,321.05,412,319Z" style="fill:#263238"></path><path d="M578.29,255.11q-5.44,34.2-23.71,49.69t-44.76,11.28q-26.62-4.23-39.3-24.65t-7.24-54.62l6.38-40.1q5.41-34.08,23.71-49.7t44.9-11.38q26.51,4.22,39.16,24.75T584.67,215Zm-22.17-49.26q3.43-21.53-2.15-33t-19.43-13.7q-13.86-2.2-22.66,7t-12.24,30.75l-7.75,48.73q-3.45,21.66,2.18,33.22t19.48,13.78q13.85,2.19,22.6-7t12.22-31Z" style="fill:#e0e0e0"></path><path d="M590.47,247.5q-5.44,34.2-23.71,49.69T522,308.47q-26.61-4.23-39.29-24.65t-7.24-54.62l6.37-40.1q5.43-34.08,23.72-49.7T550.45,128q26.49,4.22,39.16,24.75t7.24,54.62ZM568.3,198.25q3.42-21.54-2.16-33t-19.43-13.7q-13.85-2.2-22.66,7t-12.24,30.74L504.06,238q-3.44,21.66,2.19,33.23T525.73,285q13.85,2.2,22.6-7t12.22-31Z" style="fill:#5A5A5A"></path><g style="opacity:0.4"><path d="M590.47,247.5q-5.44,34.2-23.71,49.69T522,308.47q-26.61-4.23-39.29-24.65t-7.24-54.62l6.37-40.1q5.43-34.08,23.72-49.7T550.45,128q26.49,4.22,39.16,24.75t7.24,54.62ZM568.3,198.25q3.42-21.54-2.16-33t-19.43-13.7q-13.85-2.2-22.66,7t-12.24,30.74L504.06,238q-3.44,21.66,2.19,33.23T525.73,285q13.85,2.2,22.6-7t12.22-31Z"></path></g><path d="M607.33,250.18q-5.45,34.21-23.71,49.7t-44.77,11.27q-26.61-4.23-39.29-24.65t-7.24-54.61l6.37-40.11q5.43-34.08,23.72-49.69t44.9-11.38q26.49,4.22,39.16,24.75t7.24,54.62Zm-22.17-49.25q3.42-21.54-2.16-33t-19.43-13.7q-13.85-2.2-22.66,7t-12.24,30.74l-7.75,48.73q-3.43,21.66,2.19,33.23t19.48,13.77q13.85,2.2,22.6-7t12.22-31Z" style="fill:#5A5A5A"></path><path d="M498.41,194.18c0,.12-4.14,1-9.3,2s-9.37,1.72-9.4,1.6,4.15-1,9.31-2S498.39,194.06,498.41,194.18Z" style="fill:#5A5A5A"></path><path d="M496.71,210.17c0,.12-4.14,1-9.3,2s-9.37,1.72-9.4,1.59,4.14-1,9.31-2S496.69,210.05,496.71,210.17Z" style="fill:#5A5A5A"></path><path d="M495,226.15c0,.13-4.14,1-9.31,2s-9.37,1.72-9.39,1.6,4.14-1,9.31-2S495,226,495,226.15Z" style="fill:#5A5A5A"></path><path d="M493.31,242.14c0,.12-4.14,1-9.31,2s-9.37,1.72-9.39,1.6,4.14-1,9.31-2S493.28,242,493.31,242.14Z" style="fill:#5A5A5A"></path><path d="M491.61,258.12a12.89,12.89,0,0,1-2.47.65c-1.53.34-3.65.77-6,1.23s-4.48.85-6,1.11a12.7,12.7,0,0,1-2.52.32,14.21,14.21,0,0,1,2.46-.64c1.53-.34,3.65-.77,6-1.23s4.49-.85,6-1.11A14.5,14.5,0,0,1,491.61,258.12Z" style="fill:#5A5A5A"></path><path d="M493.68,273.36a10.92,10.92,0,0,1-2.14.58c-1.34.3-3.19.69-5.24,1.09s-3.91.73-5.26,1a11.27,11.27,0,0,1-2.2.27,10.38,10.38,0,0,1,2.14-.58c1.34-.3,3.19-.69,5.24-1.09s3.91-.73,5.26-.95A11.27,11.27,0,0,1,493.68,273.36Z" style="fill:#5A5A5A"></path><path d="M501.11,288.27a9.07,9.07,0,0,1-1.91.54c-1.19.27-2.84.62-4.66,1s-3.49.65-4.69.84a7.6,7.6,0,0,1-2,.22,8.76,8.76,0,0,1,1.91-.53c1.19-.27,2.84-.62,4.66-1s3.49-.65,4.69-.85A8.88,8.88,0,0,1,501.11,288.27Z" style="fill:#5A5A5A"></path><path d="M515.71,299.69a9.07,9.07,0,0,1-1.91.54c-1.19.27-2.83.61-4.66,1s-3.48.65-4.69.84a7.57,7.57,0,0,1-2,.22,8.32,8.32,0,0,1,1.9-.53c1.19-.27,2.84-.62,4.67-1s3.48-.65,4.68-.85A9,9,0,0,1,515.71,299.69Z" style="fill:#5A5A5A"></path><path d="M569.89,274.12c0,.12-5.37,1.64-12.08,3.39s-12.16,3.06-12.19,2.94,5.38-1.63,12.08-3.38S569.86,274,569.89,274.12Z" style="fill:#5A5A5A"></path><path d="M575.48,261.12c0,.12-4.44,1.39-10,2.84s-10.06,2.51-10.09,2.39,4.44-1.38,10-2.83S575.44,261,575.48,261.12Z" style="fill:#5A5A5A"></path><path d="M579.56,246.15c0,.12-4.43,1.39-10,2.83s-10.06,2.52-10.09,2.4,4.43-1.39,10-2.83S579.53,246,579.56,246.15Z" style="fill:#5A5A5A"></path><path d="M583.65,231.18c0,.12-4.43,1.39-10,2.83s-10.06,2.52-10.09,2.4,4.43-1.39,10-2.83S583.62,231.06,583.65,231.18Z" style="fill:#5A5A5A"></path><path d="M587.74,216.21c0,.12-4.44,1.38-10,2.83s-10,2.52-10.09,2.4,4.44-1.39,10-2.84S587.71,216.09,587.74,216.21Z" style="fill:#5A5A5A"></path><path d="M587,202.13c0,.12-4.44,1.39-10,2.84s-10,2.52-10.08,2.39,4.43-1.38,10-2.83S587,202,587,202.13Z" style="fill:#5A5A5A"></path><path d="M589.47,187.53c0,.12-4.44,1.39-10,2.84s-10.06,2.52-10.09,2.4,4.44-1.39,10-2.84S589.43,187.41,589.47,187.53Z" style="fill:#5A5A5A"></path><path d="M590.27,173.53c0,.12-4.43,1.39-10,2.83s-10.06,2.52-10.09,2.4,4.43-1.39,10-2.83S590.24,173.41,590.27,173.53Z" style="fill:#5A5A5A"></path><path d="M578.83,161.75a87.25,87.25,0,0,1-12.2,3.18,44.38,44.38,0,0,1,6-1.81A43.91,43.91,0,0,1,578.83,161.75Z" style="fill:#5A5A5A"></path><path d="M572.84,154.7a44.82,44.82,0,0,1-6.05,1.81,44,44,0,0,1-6.15,1.37,43.82,43.82,0,0,1,6-1.81A45.69,45.69,0,0,1,572.84,154.7Z" style="fill:#5A5A5A"></path><path d="M502.4,175.13c0,.12-4.14,1-9.3,2s-9.37,1.72-9.4,1.6,4.15-1,9.31-2S502.38,175,502.4,175.13Z" style="fill:#5A5A5A"></path><path d="M510.6,156.22c0,.12-4.49,1.1-10.09,2.19s-10.15,1.87-10.17,1.75,4.49-1.1,10.09-2.19S510.58,156.1,510.6,156.22Z" style="fill:#5A5A5A"></path><path d="M526.61,138.84c0,.12-5.7,1.34-12.79,2.72S501,144,501,143.83s5.7-1.34,12.79-2.72S526.59,138.72,526.61,138.84Z" style="fill:#5A5A5A"></path><path d="M269.47,247.62l22.38-1.74,1.84,23.71-22.37,1.74,3.06,39.39L245,313l-3.07-39.39-61.64,4.79.06-26,49.91-116.31,30.4-2.36Zm-77,6,47.54-3.7-5.58-71.85-.75-.19-2,5.42Z" style="fill:#e0e0e0"></path><path d="M255.77,236.14l22.37-1.74L280,258.11l-22.37,1.74,3.06,39.39-29.42,2.29-3.06-39.39-76,5.9-2.13-18,66.45-125.49,30.39-2.37Zm-77,6,47.54-3.69-5.59-71.85-.75-.19-2,5.42Z" style="fill:#5A5A5A"></path><g style="opacity:0.4"><path d="M255.77,236.14l22.37-1.74L280,258.11l-22.37,1.74,3.06,39.39-29.42,2.29-3.06-39.39-76,5.9-2.13-18,66.45-125.49,30.39-2.37Zm-77,6,47.54-3.69-5.59-71.85-.75-.19-2,5.42Z"></path></g><path d="M236.29,237.57l22.37-1.74,1.84,23.71-22.37,1.74,3.06,39.39L211.77,303l-3.06-39.39-76,5.9-2.13-18L197,126l30.39-2.36Zm-77,6,47.54-3.69L201.28,168l-.75-.18-2,5.41Z" style="fill:#5A5A5A"></path><path d="M188,226.62a5.32,5.32,0,0,1-.94.54c-.62.33-1.52.78-2.64,1.33-2.23,1.1-5.34,2.57-8.79,4.14s-6.59,3-8.88,3.92c-1.14.49-2.07.86-2.72,1.12a5.21,5.21,0,0,1-1,.35,8.1,8.1,0,0,1,1-.48l2.68-1.22,8.84-4,8.83-4.05L187,227A7.18,7.18,0,0,1,188,226.62Z" style="fill:#5A5A5A"></path><path d="M198.62,207.46a7.7,7.7,0,0,1-1,.52c-.63.32-1.55.76-2.68,1.29-2.27,1.06-5.42,2.47-8.91,4s-6.68,2.84-9,3.76c-1.16.46-2.1.83-2.75,1.07a4.87,4.87,0,0,1-1,.33,9.1,9.1,0,0,1,1-.46l2.71-1.17,9-3.86,9-3.89,2.71-1.18A6.46,6.46,0,0,1,198.62,207.46Z" style="fill:#5A5A5A"></path><path d="M254.22,224.33a4.09,4.09,0,0,1-.68.46c-.46.28-1.12.67-1.94,1.14-1.65.95-3.95,2.22-6.52,3.57s-4.93,2.51-6.65,3.32l-2,1a4.38,4.38,0,0,1-.77.3,3.76,3.76,0,0,1,.71-.42l2-1.05,6.6-3.41,6.56-3.47,2-1.05A3.11,3.11,0,0,1,254.22,224.33Z" style="fill:#5A5A5A"></path><path d="M278.1,237.67a4.57,4.57,0,0,1-.69.46c-.45.28-1.12.67-1.94,1.14-1.65.95-4,2.22-6.52,3.57s-4.93,2.51-6.64,3.33c-.86.4-1.56.73-2.05.94a4.06,4.06,0,0,1-.77.3,3.76,3.76,0,0,1,.71-.42l2-1.05,6.59-3.41,6.56-3.47,2-1.05A3.64,3.64,0,0,1,278.1,237.67Z" style="fill:#5A5A5A"></path><path d="M279.13,249.6a4.57,4.57,0,0,1-.69.46c-.45.28-1.12.67-1.94,1.14-1.65,1-3.95,2.22-6.52,3.57s-4.93,2.51-6.64,3.32c-.86.41-1.56.73-2,1a4.06,4.06,0,0,1-.77.3,3.76,3.76,0,0,1,.71-.42l2-1.05,6.59-3.41,6.56-3.47,2-1.05A3.64,3.64,0,0,1,279.13,249.6Z" style="fill:#5A5A5A"></path><path d="M257.55,260.26a3.31,3.31,0,0,1-.66.46c-.44.27-1.08.66-1.88,1.13-1.59.94-3.81,2.21-6.3,3.55s-4.77,2.49-6.44,3.3c-.83.41-1.51.73-2,.94a3.24,3.24,0,0,1-.75.3,4,4,0,0,1,.69-.42c.52-.28,1.17-.62,1.93-1l6.38-3.39,6.35-3.45,1.93-1A3.64,3.64,0,0,1,257.55,260.26Z" style="fill:#5A5A5A"></path><path d="M258.5,273.14a3.77,3.77,0,0,1-.66.46c-.44.28-1.08.66-1.88,1.13-1.59.94-3.82,2.21-6.3,3.55s-4.77,2.49-6.44,3.3c-.83.41-1.51.73-2,.94a3.24,3.24,0,0,1-.75.3,4,4,0,0,1,.69-.42l1.93-1,6.38-3.39,6.35-3.45,1.93-1A3.64,3.64,0,0,1,258.5,273.14Z" style="fill:#5A5A5A"></path><path d="M259.45,286a3.77,3.77,0,0,1-.66.46c-.44.28-1.08.66-1.88,1.13-1.59.94-3.82,2.21-6.3,3.55s-4.78,2.49-6.44,3.3c-.83.41-1.51.73-2,.94a3.24,3.24,0,0,1-.75.3,3.49,3.49,0,0,1,.69-.42l1.93-1,6.38-3.39,6.35-3.45,1.93-1A3.64,3.64,0,0,1,259.45,286Z" style="fill:#5A5A5A"></path><path d="M253.24,210.72a4,4,0,0,1-.69.46c-.45.28-1.11.67-1.94,1.14-1.65,1-3.94,2.22-6.51,3.57s-4.93,2.51-6.65,3.32l-2,.95a4.38,4.38,0,0,1-.77.3,3.76,3.76,0,0,1,.71-.42l2-1,6.59-3.41,6.56-3.47,2-1.05A3.73,3.73,0,0,1,253.24,210.72Z" style="fill:#5A5A5A"></path><path d="M252.26,197.11a4,4,0,0,1-.69.46c-.45.28-1.11.67-1.94,1.14-1.65.95-3.94,2.22-6.52,3.57s-4.92,2.51-6.64,3.32l-2,1a4,4,0,0,1-.78.3,4.15,4.15,0,0,1,.72-.42l2-1.05L243,202l6.56-3.47,2-1.05A3.73,3.73,0,0,1,252.26,197.11Z" style="fill:#5A5A5A"></path><path d="M250.77,181.23a3.25,3.25,0,0,1-.66.44c-.43.27-1.06.64-1.84,1.1-1.57.9-3.76,2.12-6.21,3.4s-4.69,2.39-6.33,3.16c-.82.39-1.49.69-1.95.9a3.5,3.5,0,0,1-.74.28,3.66,3.66,0,0,1,.68-.4l1.9-1,6.28-3.25,6.25-3.31c.75-.39,1.38-.73,1.9-1A3.69,3.69,0,0,1,250.77,181.23Z" style="fill:#5A5A5A"></path><path d="M249.89,164.66a3,3,0,0,1-.65.44c-.43.27-1.06.64-1.85,1.1-1.57.9-3.75,2.12-6.2,3.4s-4.7,2.39-6.34,3.16c-.81.39-1.48.69-1.94.9a3.74,3.74,0,0,1-.74.28,4,4,0,0,1,.68-.41l1.9-1,6.28-3.25,6.24-3.31c.76-.39,1.39-.73,1.9-1A4.34,4.34,0,0,1,249.89,164.66Z" style="fill:#5A5A5A"></path><path d="M248.79,147.67a3.65,3.65,0,0,1-.68.49l-1.94,1.2c-1.65,1-3.95,2.34-6.53,3.76s-4.94,2.66-6.67,3.53c-.86.44-1.56.78-2.05,1a4.66,4.66,0,0,1-.78.33,3.52,3.52,0,0,1,.71-.45l2-1.1,6.61-3.62,6.57-3.67,2-1.11A5,5,0,0,1,248.79,147.67Z" style="fill:#5A5A5A"></path><path d="M248.15,131.52a4.39,4.39,0,0,1-.72.45c-.47.27-1.15.65-2,1.11-1.71.92-4.09,2.15-6.76,3.46s-5.11,2.42-6.9,3.21c-.89.4-1.61.71-2.12.91a3.19,3.19,0,0,1-.8.29,4.44,4.44,0,0,1,.74-.41l2.07-1,6.84-3.3,6.8-3.37,2.07-1A3.88,3.88,0,0,1,248.15,131.52Z" style="fill:#5A5A5A"></path><path d="M203.47,189.85c.05.11-4.41,2.43-10,5.19s-10.12,4.91-10.17,4.8,4.4-2.44,10-5.2S203.41,189.73,203.47,189.85Z" style="fill:#5A5A5A"></path><path d="M201.74,176a12.21,12.21,0,0,1-3.33,2.14,12.6,12.6,0,0,1-3.71,1.39,30.64,30.64,0,0,1,3.5-1.79A31.94,31.94,0,0,1,201.74,176Z" style="fill:#5A5A5A"></path><path d="M297.23,250.62C303.88,265.29,311,274.89,326.7,288c19,15.92,46.32,21.1,69.95,13.69s45.59-27.3,52.28-51.14" style="fill:#e0e0e0"></path><circle cx="373.04" cy="207.92" r="87.03" style="fill:#5A5A5A"></circle><path d="M346.09,125.44c-2.84,2.28,1.26,6.94,4.05,9.28s6.11,5.12,5.73,8.75c-8.89,1.53-18.11,3.2-25.51,8.37-10.95,7.66-15.64,21.24-21.42,33.28-3.52,7.35-7.66,14.41-10.85,21.9s-5.44,15.59-4.91,23.72,4.18,16.33,10.85,21,16.51,5,22.72-.24q.3,3.42.62,6.86l-2.05,22.33,50.55,3.66,5.79-151.76V121.3S351.86,120.82,346.09,125.44Z" style="opacity:0.30000000000000004"></path><path d="M449.26,208.21c-3.6-2.05-7.8-2.47-11.93-2.38a45.66,45.66,0,0,0-12.18,2.22,37.91,37.91,0,0,0-9.6,4.15l.41,1.17a47,47,0,0,0,33.19-3.66c.29-.15,1.13-.5,1.07-.82S449.44,208.31,449.26,208.21Z" style="fill:#263238"></path><path d="M304.34,210.84c-.85,1.38-.4,3.3.32,4.75a11.59,11.59,0,0,0,3.18,3.62c3.82,3.15,8.42,5.63,13.36,5.88s10.21-2.14,12.38-6.59c.54-1.09,1.51-2.77,1.51-2.77a23.8,23.8,0,0,0-3.79-1.87c-4.45-1.72-8.63-3.68-13.33-4.53a23.76,23.76,0,0,0-13.63,1.51" style="fill:#263238"></path><path d="M432.39,157.61c-2.74-3-36.17-15.9-36.17-15.9l-31.73,2.23s-15.47,4-27.08,8.22a26.48,26.48,0,0,0-15.57,15l-17.5,43.66s2.58-1.46,10-1.36c7.66.11,20.72,6.25,20.72,6.25l-8.31,65.74c25.57,17.23,56.32,18.77,86.12,3.84l.17-9.38,3.21-62.84c3.32-4.51,21.37-10.37,33.94-4.2C450.22,208.89,438.06,163.84,432.39,157.61Z" style="fill:#455a64"></path><path d="M413.38,173a2.44,2.44,0,0,1,.13-.79,13.74,13.74,0,0,1,.65-2.06,20.15,20.15,0,0,1,3.72-6.07,20.53,20.53,0,0,1,5.57-4.44,15.12,15.12,0,0,1,2-.89,2.51,2.51,0,0,1,.76-.23c0,.08-1,.49-2.57,1.4a22.36,22.36,0,0,0-9.16,10.35C413.73,171.9,413.45,173,413.38,173Z" style="fill:#263238"></path><path d="M413.46,212.39c-.12,0-.25-8.15-.29-18.21s0-18.21.16-18.22.25,8.16.29,18.22S413.59,212.39,413.46,212.39Z" style="fill:#263238"></path><path d="M339.16,177c.13,0-.7,8.56-1.84,19.08s-2.16,19-2.28,19,.7-8.56,1.84-19.08S339,177,339.16,177Z" style="fill:#263238"></path><path d="M400.52,143.45a2.63,2.63,0,0,1,0,.64,14.18,14.18,0,0,1-.07,1.81,20.24,20.24,0,0,1-1.76,6.44,20.87,20.87,0,0,1-6.14,7.73,20.6,20.6,0,0,1-23,1.12,20.8,20.8,0,0,1-6.86-7.11,20.25,20.25,0,0,1-2.37-6.24,15.23,15.23,0,0,1-.25-1.8,2.5,2.5,0,0,1,0-.63c.06,0,.1.87.45,2.4a21.39,21.39,0,0,0,2.47,6.11,20.84,20.84,0,0,0,6.81,6.91,20.34,20.34,0,0,0,22.55-1.09,20.86,20.86,0,0,0,6.1-7.53,21.49,21.49,0,0,0,1.88-6.33C400.5,144.33,400.46,143.45,400.52,143.45Z" style="fill:#263238"></path><path d="M335.57,201.1a4.05,4.05,0,0,1-.95-.33c-.59-.24-1.46-.59-2.53-1a72.68,72.68,0,0,0-17.35-4.31c-1.14-.14-2.06-.24-2.7-.3a4.79,4.79,0,0,1-1-.15,4.23,4.23,0,0,1,1,0c.64,0,1.57.06,2.72.16a59.76,59.76,0,0,1,17.44,4.32c1.06.45,1.91.84,2.48,1.13A4.38,4.38,0,0,1,335.57,201.1Z" style="fill:#fafafa"></path><path d="M412.94,197.6c0,.13-17-.3-37.9-1s-37.89-1.29-37.89-1.42,17,.31,37.91,1S412.94,197.48,412.94,197.6Z" style="fill:#fafafa"></path><path d="M443,185.92a6.13,6.13,0,0,1-1.19,0c-.77,0-1.87-.07-3.23-.06a50.86,50.86,0,0,0-20.62,4.48c-1.24.56-2.24,1-2.91,1.39a5.73,5.73,0,0,1-1.08.5,6.15,6.15,0,0,1,1-.65c.65-.4,1.63-.93,2.86-1.53a46.44,46.44,0,0,1,10.12-3.47,46,46,0,0,1,10.64-1,32.07,32.07,0,0,1,3.24.2A6.65,6.65,0,0,1,443,185.92Z" style="fill:#fafafa"></path><path d="M339,173.66c-.05.06-.89-.6-2.35-1.51a29.08,29.08,0,0,0-6-2.82,29.54,29.54,0,0,0-6.53-1.35c-1.71-.15-2.78-.12-2.78-.2a2.78,2.78,0,0,1,.75-.1,16.77,16.77,0,0,1,2.05,0,24.71,24.71,0,0,1,6.65,1.23,24.36,24.36,0,0,1,6.06,3,15.45,15.45,0,0,1,1.64,1.24A2.89,2.89,0,0,1,339,173.66Z" style="fill:#fafafa"></path><path d="M407.67,172.17a2.49,2.49,0,0,1-.65,0l-1.85-.12-6.81-.49c-5.74-.41-13.68-.9-22.46-1.25s-16.74-.48-22.5-.52l-6.82-.05-1.86,0a4,4,0,0,1-.64,0,3.2,3.2,0,0,1,.64,0l1.86-.06c1.61-.05,3.94-.09,6.82-.1,5.76,0,13.73,0,22.52.39s16.73.89,22.47,1.38c2.87.24,5.19.46,6.79.63l1.85.21A4.22,4.22,0,0,1,407.67,172.17Z" style="fill:#fafafa"></path><path d="M359.35,151.4a64.89,64.89,0,0,1-7.52-.27,63.53,63.53,0,0,1-7.49-.72,64.89,64.89,0,0,1,7.52.27A60.8,60.8,0,0,1,359.35,151.4Z" style="fill:#fafafa"></path><path d="M419.06,150.49c0,.12-4.36.22-9.72.22s-9.72-.1-9.72-.22,4.35-.23,9.72-.23S419.06,150.36,419.06,150.49Z" style="fill:#fafafa"></path><path d="M414.05,229.63s-.07,0-.2,0l-.61,0-2.32,0c-2,0-4.94,0-8.55-.07-7.22-.12-17.2-.46-28.19-1.16s-20.94-1.63-28.12-2.43c-3.58-.4-6.48-.75-8.49-1l-2.3-.32-.6-.09-.2-.05h.21l.6.05,2.31.23,8.51.87c7.18.72,17.11,1.6,28.11,2.3s21,1.09,28.16,1.29l8.55.21,2.32.07.61,0Z" style="fill:#fafafa"></path><path d="M414.64,257.55l-.21.06-.63.14-2.42.48c-1.06.21-2.35.46-3.86.68s-3.22.54-5.13.76-4,.52-6.24.72-4.66.38-7.19.55c-5.08.27-10.67.37-16.53.17S361,260.39,356,259.76c-2.52-.35-4.91-.66-7.14-1.07s-4.29-.77-6.17-1.16-3.58-.78-5.06-1.12-2.76-.67-3.8-1l-2.38-.66-.62-.18a.61.61,0,0,1-.21-.08l.22,0,.63.14,2.4.57c1,.26,2.32.57,3.81.88s3.18.72,5.07,1.06,3.95.76,6.18,1.1,4.61.69,7.12,1c5,.6,10.59,1.09,16.44,1.31s11.43.11,16.49-.13c2.53-.16,4.94-.28,7.18-.52s4.34-.42,6.24-.65,3.62-.49,5.13-.7,2.81-.42,3.87-.6l2.43-.4.64-.1C414.57,257.54,414.64,257.54,414.64,257.55Z" style="fill:#fafafa"></path><path d="M413,281.4l-.21.08-.63.19-2.44.71c-.53.14-1.12.32-1.77.48l-2.13.48-2.45.54c-.87.18-1.8.31-2.78.48s-2,.34-3.05.5l-3.34.4-1.76.2-1.82.14-3.8.29a166.77,166.77,0,0,1-17-.1c-6-.4-11.71-1.13-16.86-2l-3.74-.73-1.79-.35-1.72-.41-3.27-.77-3-.83a93.5,93.5,0,0,1-12.05-4.18.63.63,0,0,1,.22.06l.63.21,2.39.85c.52.18,1.09.4,1.72.61l2.08.65,2.39.75c.85.26,1.76.48,2.71.75l3,.79,3.27.75,1.72.39,1.79.34,3.74.71c5.13.84,10.81,1.55,16.81,1.95a169.13,169.13,0,0,0,16.92.13l3.79-.26,1.82-.13,1.75-.2,3.33-.37c1.06-.14,2.08-.32,3.05-.46s1.9-.29,2.77-.45l2.46-.51,2.13-.43c.65-.15,1.24-.32,1.78-.45l2.46-.63.64-.15Z" style="fill:#fafafa"></path><path d="M330.82,248a86.19,86.19,0,0,0,39-18.75c2-1.67,4.09-3.53,6.68-3.62,2.91-.1,5.33,2.08,7.55,4a66.79,66.79,0,0,0,30.79,14.79c1.64-2.56.93-6.08-.88-8.52s-4.52-4-7.14-5.56L382.25,216c-1.86-1.09-3.92-2.21-6.05-1.87a9.44,9.44,0,0,0-3.8,1.89l-38.35,27c-1.68,1.19-3.57,3.24-2.47,5" style="opacity:0.2"></path><path d="M306.76,210.35s-5.75,17.1-6.57,20.05c-1.58,5.73-.1,20.66,13.84,20.66,16.9,0,78.57-39.79,78.57-39.79L380,203.68,330,220l1.92-5.64S318.06,207.19,306.76,210.35Z" style="fill:#ffbe9d"></path><path d="M380.26,204.26s16.49-21.44,16.49-21.72,9.79-8.66,9.79-8.66,2.16.1,2,1.51-3.67,6.39-3.67,6.39a13.32,13.32,0,0,1-1.69,3.13c-1,1.43-5.83,10-5.83,10s4.61-4.42,5.45-4a1.77,1.77,0,0,1,1,2.44c-.47,1.41-4.8,5.74-4.8,5.74s-2.54,8.94-5.36,11.48l-7.06,4.7Z" style="fill:#ffbe9d"></path><path d="M395.61,198.59a3.56,3.56,0,0,1-.72,2.65,25.58,25.58,0,0,1-1.83,2.38,9.78,9.78,0,0,0-1.67,3.14c-.41,1.21-.72,2.42-1.15,3.48a8.45,8.45,0,0,1-1.57,2.59A4.74,4.74,0,0,1,387,214a1.76,1.76,0,0,1-.73.17,5.94,5.94,0,0,0,2.16-1.58,8.78,8.78,0,0,0,1.43-2.52c.39-1,.68-2.24,1.11-3.47a9.63,9.63,0,0,1,1.77-3.26c.72-.87,1.42-1.59,1.88-2.29A6,6,0,0,0,395.61,198.59Z" style="fill:#eb996e"></path><path d="M404.86,182.31s-.17-.19-.53-.43a2.54,2.54,0,0,0-1.73-.35,3.91,3.91,0,0,0-2.29,1.32c-.71.75-1.37,1.72-2.13,2.68-1.49,1.94-2.86,3.68-3.87,4.93a14.26,14.26,0,0,1-1.71,2,14.54,14.54,0,0,1,1.45-2.15c.95-1.3,2.28-3.07,3.77-5,.76-1,1.43-1.92,2.19-2.7a4.13,4.13,0,0,1,2.55-1.34,2.54,2.54,0,0,1,1.88.52C404.8,182.05,404.88,182.31,404.86,182.31Z" style="fill:#eb996e"></path><path d="M395.74,203.62c-.13-.05.51-2,1-4.38s.6-4.43.73-4.43a12.69,12.69,0,0,1-.29,4.52A13.27,13.27,0,0,1,395.74,203.62Z" style="fill:#eb996e"></path><path d="M443.68,206.77s6.06,17.33,6.88,20.29c1.27,4.56.1,20.66-13.84,20.66-16.9,0-78.56-39.8-78.56-39.8L369.8,200l50.95,16.63-2-5.81A40.11,40.11,0,0,1,443.68,206.77Z" style="fill:#ffbe9d"></path><path d="M370.49,200.92S354,179.47,354,179.19s-9.78-8.65-9.78-8.65-2.16.09-2,1.5,3.66,6.4,3.66,6.4a13.55,13.55,0,0,0,1.7,3.12c1,1.44,5.83,9.95,5.83,9.95s-4.61-4.42-5.46-3.95a1.78,1.78,0,0,0-1,2.45c.47,1.41,4.8,5.74,4.8,5.74s2.54,8.93,5.36,11.47l7.05,4.7Z" style="fill:#ffbe9d"></path><path d="M355.15,195.24a5.9,5.9,0,0,0,1,2.49c.47.69,1.16,1.41,1.89,2.29a9.58,9.58,0,0,1,1.77,3.25c.42,1.24.72,2.44,1.11,3.47a8.85,8.85,0,0,0,1.43,2.53,5.83,5.83,0,0,0,2.16,1.57,1.56,1.56,0,0,1-.73-.17,4.49,4.49,0,0,1-1.67-1.19,8.66,8.66,0,0,1-1.58-2.59c-.42-1.06-.73-2.26-1.15-3.47a9.66,9.66,0,0,0-1.66-3.14,24,24,0,0,1-1.83-2.38A3.58,3.58,0,0,1,355.15,195.24Z" style="fill:#eb996e"></path><path d="M345.9,179s.06-.27.42-.58a2.62,2.62,0,0,1,1.87-.52,4.05,4.05,0,0,1,2.55,1.35,31.05,31.05,0,0,1,2.19,2.69c1.5,1.94,2.83,3.71,3.77,5a14.55,14.55,0,0,1,1.46,2.16,16,16,0,0,1-1.71-2c-1-1.25-2.38-3-3.87-4.93-.76-1-1.43-1.93-2.13-2.68a3.94,3.94,0,0,0-2.29-1.32,2.64,2.64,0,0,0-1.74.34C346.06,178.77,345.93,179,345.9,179Z" style="fill:#eb996e"></path><path d="M355,200.27a17.74,17.74,0,0,1-1.71-8.8c.13,0,.25,2,.73,4.43S355.15,200.23,355,200.27Z" style="fill:#eb996e"></path><path d="M384.89,224.25c-.07.1-6.34-3.62-14-8.32s-13.84-8.6-13.77-8.71,6.33,3.62,14,8.32S385,224.14,384.89,224.25Z" style="fill:#eb996e"></path><path d="M421.79,217.15a3.11,3.11,0,0,1-.54-.13l-1.53-.45-5.6-1.73c-4.73-1.49-11.25-3.57-18.43-5.92s-13.67-4.52-18.36-6.14c-2.34-.81-4.23-1.48-5.53-2l-1.49-.57a2.05,2.05,0,0,1-.51-.23,3.44,3.44,0,0,1,.54.14l1.52.49,5.58,1.83,18.39,6,18.38,6,5.56,1.87,1.51.53A2.08,2.08,0,0,1,421.79,217.15Z" style="fill:#eb996e"></path><path d="M374.53,68.17h0a24,24,0,0,0-24,23.21c-.39,11.56-.66,24.33-.29,30.5.76,12.81,13.67,14.19,13.67,14.19v7.84a16.54,16.54,0,0,0,16.54,16.57h0A16.55,16.55,0,0,0,397,144.25l1-51.42A23.74,23.74,0,0,0,374.53,68.17Z" style="fill:#ffbe9d"></path><path d="M363.9,136.1a29.81,29.81,0,0,0,16.48-5.53s-3.64,9.54-16.48,9Z" style="fill:#eb996e"></path><path d="M354.44,98.78c.23.24,1.61-.8,3.58-.81s3.42,1,3.63.73-.13-.54-.76-1a5,5,0,0,0-2.91-.88,4.84,4.84,0,0,0-2.85.94C354.53,98.24,354.32,98.67,354.44,98.78Z" style="fill:#263238"></path><path d="M374,98.41c.23.23,1.59-.83,3.56-.87s3.44.9,3.65.65-.14-.53-.78-1a5,5,0,0,0-2.93-.83,4.84,4.84,0,0,0-2.83,1C374,97.87,373.83,98.31,374,98.41Z" style="fill:#263238"></path><path d="M366.52,112.06a13.47,13.47,0,0,0-3.23-.42c-.51,0-1-.11-1.09-.45a2.56,2.56,0,0,1,.27-1.5c.41-1.24.85-2.54,1.3-3.9,1.81-5.55,3.09-10.11,2.87-10.18s-1.87,4.37-3.68,9.92c-.43,1.37-.85,2.67-1.24,3.92a3,3,0,0,0-.17,2,1.27,1.27,0,0,0,.86.69,3,3,0,0,0,.86.08A13.25,13.25,0,0,0,366.52,112.06Z" style="fill:#263238"></path><path d="M372.68,93.87c.31.48,2.18-.2,4.49-.44s4.29,0,4.48-.57c.08-.25-.35-.68-1.2-1a7.87,7.87,0,0,0-6.83.77C372.87,93.13,372.55,93.64,372.68,93.87Z" style="fill:#263238"></path><path d="M353.79,93.8c.25.53,1.79.44,3.5.87s3.08,1.1,3.53.74c.21-.19.09-.68-.44-1.25a5.55,5.55,0,0,0-5.66-1.3C354,93.15,353.68,93.55,353.79,93.8Z" style="fill:#263238"></path><path d="M374.1,116.29c-.08.11-.53-.15-1.3-.36a5.69,5.69,0,0,0-3,0,5.54,5.54,0,0,0-2.51,1.63c-.54.59-.78,1.06-.91,1s-.07-.61.39-1.39a4.92,4.92,0,0,1,2.78-2.11,4.87,4.87,0,0,1,3.48.29C373.84,115.74,374.18,116.21,374.1,116.29Z" style="fill:#263238"></path><path d="M356.24,100.53a1.8,1.8,0,0,0,1.82,1.74,1.73,1.73,0,0,0,1.79-1.71A1.82,1.82,0,0,0,358,98.81,1.73,1.73,0,0,0,356.24,100.53Z" style="fill:#263238"></path><path d="M375.74,100a1.81,1.81,0,0,0,1.83,1.74,1.73,1.73,0,0,0,1.79-1.72,1.81,1.81,0,0,0-1.83-1.74A1.73,1.73,0,0,0,375.74,100Z" style="fill:#263238"></path><path d="M406.26,92.25a3.17,3.17,0,0,0,.8-2.55c-.26-1-1.39-1.64-1.78-2.64s0-2.11,0-3.17a5.81,5.81,0,0,0-2.08-3.79c-.11-.11-.23-.21-.35-.31a29.72,29.72,0,0,0-3.4-5.7l3.32,3.08c1.16-3.23-3.56-8.94-7.45-10.62a12,12,0,0,0-8.33,0s-9.8-7.38-19.4-5c-5.88,1.48-11.79,4-15.77,9.89a6.78,6.78,0,0,0-3.38,4.15c-.72,2.2-.87,4.6-2,6.64-.79,1.48-2.09,3-1.69,4.59.34,1.33,1.75,2.16,2.2,3.46s-.16,2.72-.14,4.1a4.67,4.67,0,0,0,3.79,4.42c.58-3.47,1-7,1.25-10.5,1.69,1.1,5.25,2.17,12.15-.17l8.89-5s-4.39,3.8-2.25,4.44c1.82.55,11.35-4.63,14.2-6.22a4.8,4.8,0,0,1,2.79-.62c1.3.14,2.82.86,3.14,3.4.27,2.17-1,22.55.88,22.56,1.06,0,5.14-1.77,5.83-2.24v9.88a2.37,2.37,0,0,0,.88-.87l4.26-6.08a22.89,22.89,0,0,0,2.59-4.36,7.68,7.68,0,0,0,.48-5c-.32-1.13-1-2.24-.81-3.41A5.85,5.85,0,0,1,406.26,92.25Z" style="fill:#263238"></path><path d="M382.26,60.42c.14-.26.79-.27,1.69.14a7.59,7.59,0,0,1,4.12,6.11c0,1-.21,1.59-.51,1.62-.64,0-1.25-2-2.63-4S382,61,382.26,60.42Z" style="fill:#263238"></path><path d="M350.06,74.78a4.1,4.1,0,0,0,1,1.27,4.68,4.68,0,0,0,4.24.59,11.72,11.72,0,0,0,2.77-1.38c.95-.6,1.93-1.32,3.09-1.91a6.76,6.76,0,0,1,4-.89,13.37,13.37,0,0,1,4.1,1.44,11.5,11.5,0,0,0,4,1.35,5.83,5.83,0,0,0,3.64-1C379,72.87,380.38,71,382,69.85a7.48,7.48,0,0,1,4.21-1.75,4.33,4.33,0,0,1,1.25.14c.27.1.41.15.4.17a6.43,6.43,0,0,0-1.64-.14,7.63,7.63,0,0,0-4,1.84c-1.52,1.14-2.91,3-5.08,4.48a6.22,6.22,0,0,1-3.91,1.1,11.88,11.88,0,0,1-4.12-1.38,12.86,12.86,0,0,0-3.95-1.41,6.46,6.46,0,0,0-3.73.82c-1.11.56-2.1,1.26-3.07,1.86a11.35,11.35,0,0,1-2.88,1.36,4.8,4.8,0,0,1-4.44-.75,2.82,2.82,0,0,1-.77-1A1.09,1.09,0,0,1,350.06,74.78Z" style="fill:#455a64"></path><path d="M404.89,84.3s0,.09-.1.23a2.52,2.52,0,0,1-.45.56,3.77,3.77,0,0,1-2.45.9,5.62,5.62,0,0,1-3.62-1.37A22.24,22.24,0,0,1,395,81.21,36.4,36.4,0,0,1,390.42,74c-.47-1-.8-1.81-1-2.38a3.76,3.76,0,0,1-.28-.91c.07,0,.58,1.22,1.58,3.15a42.65,42.65,0,0,0,4.64,7.07,24.66,24.66,0,0,0,3.17,3.37,5.45,5.45,0,0,0,3.36,1.37,3.79,3.79,0,0,0,2.35-.72A7.25,7.25,0,0,0,404.89,84.3Z" style="fill:#455a64"></path><path d="M405,96s-.2.14-.61.27a6.49,6.49,0,0,1-1.79.28A10.06,10.06,0,0,1,397,94.78a19.86,19.86,0,0,1-4.3-4.08,12.94,12.94,0,0,1-1.43-2,13.45,13.45,0,0,1,1.68,1.77,23,23,0,0,0,4.3,3.92,10.61,10.61,0,0,0,5.39,1.82A15.31,15.31,0,0,0,405,96Z" style="fill:#455a64"></path><path d="M394,99.05c.22-.1,8.68-3,8.82,5.75s-8.7,7.1-8.72,6.85S394,99.05,394,99.05Z" style="fill:#ffbe9d"></path><path d="M396.69,108.29s.15.1.41.22a1.52,1.52,0,0,0,1.14,0c.92-.35,1.68-1.84,1.7-3.42a5.09,5.09,0,0,0-.46-2.18,1.78,1.78,0,0,0-1.17-1.16.77.77,0,0,0-.89.44c-.12.24-.06.42-.11.43s-.19-.14-.12-.5a.92.92,0,0,1,.34-.56,1.15,1.15,0,0,1,.84-.23,2.15,2.15,0,0,1,1.62,1.33,5.32,5.32,0,0,1,.56,2.44c0,1.77-.91,3.44-2.17,3.82a1.65,1.65,0,0,1-1.4-.21C396.7,108.5,396.66,108.3,396.69,108.29Z" style="fill:#eb996e"></path><path d="M311.26,349.29c0,2.48-1.88,3.91-5.54,3.91h-6.91V338.72h6.49c3.33,0,5.19,1.41,5.19,3.75a3.42,3.42,0,0,1-1.94,3.22A3.51,3.51,0,0,1,311.26,349.29Zm-10.38-8.89V345h4.24c2.11,0,3.3-.79,3.3-2.32s-1.19-2.31-3.3-2.31Zm8.29,8.72c0-1.67-1.24-2.41-3.54-2.41h-4.75v4.81h4.75C307.93,351.52,309.17,350.8,309.17,349.12Z" style="fill:#5A5A5A"></path><path d="M323.68,349.58H316l-1.59,3.62h-2.13l6.55-14.48h2.05l6.57,14.48h-2.17Zm-.72-1.65-3.13-7.1-3.12,7.1Z" style="fill:#5A5A5A"></path><path d="M329.59,338.72h6.1c4.65,0,7.82,2.94,7.82,7.24s-3.17,7.24-7.82,7.24h-6.1Zm6,12.68c3.57,0,5.87-2.19,5.87-5.44s-2.3-5.44-5.87-5.44h-3.91V351.4Z" style="fill:#5A5A5A"></path><path d="M361.9,353.2l-3.12-4.45c-.29,0-.6,0-.91,0h-3.58v4.41h-2.06V338.72h5.64c3.76,0,6,1.91,6,5a4.57,4.57,0,0,1-3.19,4.57l3.44,4.86Zm-.06-9.43c0-2.07-1.39-3.25-4-3.25h-3.52V347h3.52C360.45,347,361.84,345.84,361.84,343.77Z" style="fill:#5A5A5A"></path><path d="M377.76,351.4v1.8H367.25V338.72h10.22v1.8h-8.15V345h7.26v1.76h-7.26v4.67Z" style="fill:#5A5A5A"></path><path d="M396,354.52a4.65,4.65,0,0,1-3.64,1.7c-1.82,0-3.24-.79-5.27-2.88a7.41,7.41,0,1,1,8.21-7.38,7.2,7.2,0,0,1-5.69,7.18,3.75,3.75,0,0,0,2.77,1.44,3.42,3.42,0,0,0,2.65-1.24Zm-8.37-3a5.56,5.56,0,1,0-5.65-5.56A5.44,5.44,0,0,0,387.58,351.52Z" style="fill:#5A5A5A"></path><path d="M398.28,347v-8.23h2.07v8.15c0,3.21,1.47,4.65,4.07,4.65s4.1-1.44,4.1-4.65v-8.15h2V347c0,4.2-2.29,6.41-6.12,6.41S398.28,351.15,398.28,347Z" style="fill:#5A5A5A"></path><path d="M425.26,351.4v1.8h-10.5V338.72H425v1.8h-8.14V345h7.25v1.76h-7.25v4.67Z" style="fill:#5A5A5A"></path><path d="M427.28,351.54l.77-1.61a7.44,7.44,0,0,0,4.78,1.68c2.5,0,3.57-1,3.57-2.24,0-3.53-8.76-1.3-8.76-6.68,0-2.23,1.73-4.13,5.54-4.13a8.5,8.5,0,0,1,4.65,1.28l-.68,1.65a7.52,7.52,0,0,0-4-1.17c-2.46,0-3.52,1-3.52,2.29,0,3.54,8.77,1.32,8.77,6.64,0,2.21-1.78,4.11-5.6,4.11A8.58,8.58,0,0,1,427.28,351.54Z" style="fill:#5A5A5A"></path><path d="M444.11,340.52h-5v-1.8h12v1.8h-5V353.2h-2.05Z" style="fill:#5A5A5A"></path></g><g id="freepik--Floor--inject-2"><path d="M713.66,476.3c0,.14-151,.26-337.13.26s-337.16-.12-337.16-.26S190.29,476,376.53,476,713.66,476.15,713.66,476.3Z" style="fill:#263238"></path></g></svg>