<svg xmlns="http://www.w3.org/2000/svg" xmlns:xlink="http://www.w3.org/1999/xlink" width="60px" height="60px" viewBox="0 0 2362.2047244094488 2362.2047244094488">
  <g id="JBIWa2KFF50K2XG7nY3XQ">
<path style="stroke: rgb(114,114,114); stroke-width: 0; stroke-dasharray: none; stroke-linecap: butt; stroke-dashoffset: 0; stroke-linejoin: round; stroke-miterlimit: 4; fill: rgb(114,114,114); fill-rule: nonzero; opacity: 1;" vector-effect="non-scaling-stroke" transform="matrix(1 0 0 1 0 0)  translate(0, 0)" d="" stroke-linecap="round"/>
</g>
<g id="ZZsLzx84tEHbhdqCX3Z1K">
<g vector-effect="non-scaling-stroke">
		<g id="WSa0S-LD8yZjdMM9razUh">
<path style="stroke: rgb(255,255,255); stroke-width: 0; stroke-dasharray: none; stroke-linecap: butt; stroke-dashoffset: 0; stroke-linejoin: miter; stroke-miterlimit: 4; fill: rgb(255,255,255); fill-rule: nonzero; opacity: 1;" d="M835.3948,1141.90236c5.01,0 9.12,-5 9.12,-10.01c0,-5 -4.11,-10.01 -9.12,-10.01h-78.42v20.02zM756.9748,1063.48236v20.13h67.52c5.01,0 9.12,-5.11 9.12,-10.12c0,-5.01 -4.11,-10.01 -9.12,-10.01zM899.2448,1137.34236c0.34,26.14 -21.69,40.16 -47.38,40.16h-153.18v-149.51h142.16c25.92,-0.11 47.84,14.02 47.5,40.05c0,14.35 -6.67,25.36 -17.35,32.15c16.91,5.45 28.25,18.35 28.25,37.15zM992.3548,1115.43236h41.05l-20.47,-44.16zM978.2348,1027.99236h69.3l80.2,149.51h-65.63l-11.79,-25.58h-74.86l-11.8,25.58h-65.63zM1225.2948,1085.62236c41.72,2.11 100.34,5 100.23,42.49c0,42.72 -48.94,52.84 -101.45,52.84c-52.39,-0.11 -95.89,-6.45 -101.45,-52.84h61.07c6.67,11.57 22.14,14.57 40.38,14.57c18.13,0 40.38,-3 40.38,-14.57c0,-6.56 -18.13,-7.56 -41.6,-8.68c-41.72,-2.11 -100.34,-5 -100.23,-42.38c0,-42.72 48.94,-52.95 101.45,-52.95c52.39,0.33 95.89,6.23 101.45,52.95h-61.07c-6.67,-11.79 -22.14,-14.57 -40.38,-14.57c-18.13,0 -40.38,2.67 -40.38,14.57c0,6.56 18.13,7.45 41.6,8.57zM1399.3948,1027.77236v149.51h-58.29v-149.51zM1620.4248,1115.32236c-3.67,50.5 -47.94,65.63 -101.78,65.63c-56.07,-0.11 -102.34,-16.35 -102.12,-72.97v-10.91c-0.22,-56.51 46.05,-72.75 102.12,-72.97c53.84,0.11 98.11,15.24 101.78,65.63h-59.73c-5.45,-14.68 -22.03,-18.13 -42.05,-18.13c-23.81,0.33 -44.05,4.56 -43.72,29.14v3.68c-0.33,24.36 19.91,28.81 43.72,29.14c20.02,0 36.71,-3.56 42.05,-18.24z" stroke-linecap="round"/>
</g>
</g>
</g>
<g id="TE3Y-zvtu92UnyAclEZa3">
<path style="stroke: rgb(193,193,193); stroke-width: 0; stroke-dasharray: none; stroke-linecap: butt; stroke-dashoffset: 0; stroke-linejoin: miter; stroke-miterlimit: 4; fill: rgb(114,114,114); fill-rule: nonzero; opacity: 1;" transform="matrix(1 0 0 1 0 0)  translate(0, 0)" d="" stroke-linecap="round"/>
</g>
<g id="5lKB8_W_eigvV-G_FSctA">
<path style="stroke: rgb(193,193,193); stroke-width: 0; stroke-dasharray: none; stroke-linecap: butt; stroke-dashoffset: 0; stroke-linejoin: miter; stroke-miterlimit: 4; fill: rgb(255,255,255); fill-rule: nonzero; opacity: 1;" transform="matrix(1 0 0 1 0 0)  translate(0, 0)" d="" stroke-linecap="round"/>
</g>
<g id="Ipi64iqkNNJcxBLGZe_lq">
<path style="stroke: rgb(114,114,114); stroke-width: 0; stroke-dasharray: none; stroke-linecap: butt; stroke-dashoffset: 0; stroke-linejoin: round; stroke-miterlimit: 4; fill: rgb(114,114,114); fill-rule: nonzero; opacity: 1;" vector-effect="non-scaling-stroke" transform="matrix(1 0 0 1 0 0)  translate(0, 0)" d="" stroke-linecap="round"/>
</g>
<g id="guY0CDa5n-EAwY6sYyTuC">
<g vector-effect="non-scaling-stroke">
		<g id="up9KkzUBGDU-sgeMFUI_3">
<path style="stroke: rgb(193,193,193); stroke-width: 0; stroke-dasharray: none; stroke-linecap: butt; stroke-dashoffset: 0; stroke-linejoin: miter; stroke-miterlimit: 4; fill: rgb(255,255,255); fill-rule: nonzero; opacity: 1;" d="M508.7485,1413.7217v-94.84h-64.37v-44.02h182.87v44.02h-64.36v94.84zM699.4685,1366.0917v47.43h-54.14v-138.86h54.14v47.42h81.31v-47.42h54.25v138.86h-54.25v-47.43zM1000.3385,1274.7617c28.62,-0.31 52.9,23.76 52.48,52.49c0,10.43 -2.79,19.94 -8.37,28.41c-5.47,8.37 -12.81,14.77 -21.9,19.01l30.27,38.95h-57.65l-26.14,-33.89h-48.35v33.89h-54.14v-138.86zM920.6785,1315.3617v23.66h66.02c3.31,0 6.09,-1.13 8.37,-3.41c2.37,-2.37 3.51,-5.16 3.51,-8.36c0,-6.62 -5.27,-11.89 -11.88,-11.89zM1069.5585,1274.8617h162.52v35.54h-108.38v17.78h108.38v32.13h-108.38v17.77h108.38v35.64h-162.52zM1323.8285,1356.0717h38.12l-19.01,-41.02zM1310.7085,1274.8617h64.36l74.5,138.86h-60.96l-10.95,-23.76h-69.54l-10.95,23.76h-60.96zM1567.1385,1318.8817h-59.3v50.83h59.3c14.05,0 22.01,-11.47 22.01,-25.42c0,-14.05 -7.96,-25.41 -22.01,-25.41zM1577.2685,1274.8617c38.12,-0.51 66.43,31.52 66.12,69.43c0.31,37.71 -28,69.95 -66.12,69.43h-123.57v-138.86zM1750.2185,1328.3817c38.75,1.97 93.2,4.65 93.09,39.47c0,39.67 -45.46,49.08 -94.22,49.08c-48.67,-0.11 -89.06,-6 -94.23,-49.08h56.72c6.2,10.74 20.56,13.53 37.51,13.53c16.84,0 37.5,-2.79 37.5,-13.53c0,-6.1 -16.84,-7.03 -38.64,-8.06c-38.74,-1.96 -93.19,-4.65 -93.09,-39.36c0,-39.68 45.46,-49.18 94.23,-49.18c48.66,0.31 89.06,5.78 94.22,49.18h-56.72c-6.2,-10.96 -20.56,-13.54 -37.5,-13.54c-16.84,0 -37.51,2.48 -37.51,13.54c0,6.09 16.84,6.92 38.64,7.95z" stroke-linecap="round"/>
</g>
</g>
</g>
<g id="-ueXHAdnfOGEjmhYsseEA">
<path style="stroke: rgb(193,193,193); stroke-width: 0; stroke-dasharray: none; stroke-linecap: butt; stroke-dashoffset: 0; stroke-linejoin: miter; stroke-miterlimit: 4; fill: rgb(114,114,114); fill-rule: nonzero; opacity: 1;" transform="matrix(1 0 0 1 0 0)  translate(0, 0)" d="" stroke-linecap="round"/>
</g>
<g id="We5gj5x_IP5kMFKZ5Zxgj">
<path style="stroke: rgb(193,193,193); stroke-width: 0; stroke-dasharray: none; stroke-linecap: butt; stroke-dashoffset: 0; stroke-linejoin: miter; stroke-miterlimit: 4; fill: rgb(193,193,193); fill-rule: nonzero; opacity: 1;" transform="matrix(1 0 0 1 0 0)  translate(0, 0)" d="" stroke-linecap="round"/>
</g>
<g id="d6YM7sgRfJH35IjFqi5Tw">
<g style="" vector-effect="non-scaling-stroke">
		<g id="ugO14VHLCwHwjkJ8DyUhF">
<path style="stroke: rgb(193,193,193); stroke-width: 0; stroke-dasharray: none; stroke-linecap: butt; stroke-dashoffset: 0; stroke-linejoin: miter; stroke-miterlimit: 4; fill: rgb(255,255,255); fill-rule: nonzero; opacity: 1;" transform="matrix(0.231539 0 0 0.231539 1773.169345 1144.821268) matrix(1 0 0 1 0 0)  translate(-255.821518, -255.896508)" d="M 233.50 437.52 C 156.71 427.66 94.45 370.99 77.54 295.57 C 63.37 232.42 84.31 165.71 132.11 121.67 C 183.76 74.08 257.67 60.28 323.30 85.97 C 345.80 94.78 366.79 108.73 385.00 126.99 C 413.02 155.09 429.35 186.69 436.67 227.00 C 439.06 240.21 439.06 271.79 436.67 285.00 C 429.35 325.31 413.02 356.91 385.00 385.01 C 357.30 412.78 324.78 429.62 285.50 436.52 C 272.75 438.76 247.01 439.25 233.50 437.52 Z M 274.03 417.95 C 330.38 410.95 376.71 378.41 401.93 328.14 C 427.89 276.39 423.87 214.23 391.40 165.50 C 346.18 97.62 256.45 73.65 183.86 110.07 C 110.47 146.89 75.77 230.14 101.50 307.64 C 121.19 366.92 173.86 409.78 237.00 417.91 C 246.52 419.14 264.32 419.15 274.03 417.95 Z M 195.00 256.00 L 195.00 154.00 L 231.25 154.01 C 268.64 154.01 279.56 154.83 292.00 158.57 C 309.32 163.77 321.22 175.18 326.22 191.38 C 329.35 201.52 329.29 218.76 326.09 228.00 C 320.62 243.83 308.23 255.25 292.36 259.09 C 287.37 260.30 284.32 262.00 287.15 262.00 C 290.06 262.00 296.80 267.87 301.57 274.54 C 304.31 278.39 314.05 297.35 324.58 319.35 L 342.83 357.50 L 320.74 357.77 C 308.58 357.92 298.30 357.69 297.89 357.27 C 297.48 356.85 290.40 341.08 282.15 322.24 C 273.91 303.40 265.76 286.22 264.04 284.05 C 262.20 281.73 258.42 278.86 254.80 277.06 C 249.54 274.43 247.58 274.00 240.84 274.00 L 233.00 274.00 L 233.00 316.00 L 233.00 358.00 L 214.00 358.00 L 195.00 358.00 L 195.00 256.00 Z M 265.50 241.46 C 276.31 238.64 284.55 231.55 287.02 222.92 C 288.30 218.45 288.26 208.48 286.94 203.72 C 284.72 195.72 275.93 189.20 264.53 187.09 C 261.28 186.49 252.87 186.00 245.82 186.00 L 233.00 186.00 L 233.00 214.33 C 233.00 229.92 233.34 243.02 233.75 243.46 C 234.93 244.69 258.86 243.19 265.50 241.46 Z" stroke-linecap="round"/>
</g>
</g>
</g>

  </svg>